<svg width="237" height="73" viewBox="0 0 237 73" fill="none" xmlns="http://www.w3.org/2000/svg">
<path d="M108.777 54.14C107.627 54.14 107.052 53.45 107.052 52.07C107.052 45.216 107.535 37.925 108.501 30.197C108.041 30.105 107.558 30.036 107.052 29.99C106.592 29.898 106.132 29.806 105.672 29.714C104.384 29.53 103.74 29.162 103.74 28.61C103.74 28.058 104.016 27.713 104.568 27.575H104.499C104.085 27.575 104.154 27.552 104.706 27.506C105.258 27.414 105.971 27.322 106.845 27.23C107.719 27.138 108.409 27.092 108.915 27.092C109.191 25.482 109.743 23.573 110.571 21.365C111.031 20.031 111.399 18.881 111.675 17.915C111.997 16.903 112.25 16.098 112.434 15.5C112.664 14.58 113.262 14.12 114.228 14.12C114.642 14.12 114.803 14.327 114.711 14.741C114.343 16.029 113.883 17.708 113.331 19.778C112.779 21.802 112.181 24.217 111.537 27.023C111.951 27.023 112.457 27.023 113.055 27.023C113.699 27.023 114.435 27.046 115.263 27.092C116.091 27.138 116.804 27.184 117.402 27.23C118.046 27.23 118.552 27.23 118.92 27.23C119.334 27.23 119.541 27.391 119.541 27.713C119.541 27.989 119.357 28.288 118.989 28.61C118.667 28.932 118.299 29.093 117.885 29.093C117.333 29.093 116.505 29.185 115.401 29.369C114.297 29.507 112.894 29.737 111.192 30.059C110.502 35.717 110.157 43.399 110.157 53.105C110.157 53.795 109.697 54.14 108.777 54.14ZM124.882 54.14C123.732 54.14 123.157 53.45 123.157 52.07C123.157 45.216 123.64 37.925 124.606 30.197C124.146 30.105 123.663 30.036 123.157 29.99C122.697 29.898 122.237 29.806 121.777 29.714C120.489 29.53 119.845 29.162 119.845 28.61C119.845 28.058 120.121 27.713 120.673 27.575H120.604C120.19 27.575 120.259 27.552 120.811 27.506C121.363 27.414 122.076 27.322 122.95 27.23C123.824 27.138 124.514 27.092 125.02 27.092C125.296 25.482 125.848 23.573 126.676 21.365C127.136 20.031 127.504 18.881 127.78 17.915C128.102 16.903 128.355 16.098 128.539 15.5C128.769 14.58 129.367 14.12 130.333 14.12C130.747 14.12 130.908 14.327 130.816 14.741C130.448 16.029 129.988 17.708 129.436 19.778C128.884 21.802 128.286 24.217 127.642 27.023C128.056 27.023 128.562 27.023 129.16 27.023C129.804 27.023 130.54 27.046 131.368 27.092C132.196 27.138 132.909 27.184 133.507 27.23C134.151 27.23 134.657 27.23 135.025 27.23C135.439 27.23 135.646 27.391 135.646 27.713C135.646 27.989 135.462 28.288 135.094 28.61C134.772 28.932 134.404 29.093 133.99 29.093C133.438 29.093 132.61 29.185 131.506 29.369C130.402 29.507 128.999 29.737 127.297 30.059C126.607 35.717 126.262 43.399 126.262 53.105C126.262 53.795 125.802 54.14 124.882 54.14ZM137.016 49.517C136.556 49.517 136.257 48.988 136.119 47.93C135.981 46.826 135.912 45.699 135.912 44.549C135.912 43.813 135.912 43.146 135.912 42.548C135.958 41.904 135.981 41.421 135.981 41.099C135.981 40.639 136.004 40.064 136.05 39.374C136.096 38.638 136.165 37.81 136.257 36.89C136.395 35.004 136.464 33.578 136.464 32.612C136.464 32.152 136.441 31.715 136.395 31.301C136.349 30.841 136.326 30.427 136.326 30.059V29.783C136.326 29.231 136.625 28.955 137.223 28.955C137.683 28.955 137.936 29.231 137.982 29.783C138.074 30.289 138.143 31.324 138.189 32.888C138.235 34.452 138.281 36.522 138.327 39.098C138.327 39.788 138.465 40.133 138.741 40.133C139.063 40.133 139.546 39.604 140.19 38.546C141.524 36.338 142.973 34.475 144.537 32.957C145.687 31.899 146.745 31.37 147.711 31.37C148.861 31.37 149.85 31.876 150.678 32.888C150.954 33.21 151.092 33.555 151.092 33.923C151.092 34.521 150.839 34.82 150.333 34.82C150.149 34.82 149.942 34.751 149.712 34.613L149.643 34.682C148.769 34.038 148.194 33.716 147.918 33.716C146.814 33.716 145.779 34.314 144.813 35.51C141.455 39.65 139.385 43.836 138.603 48.068C138.419 49.034 137.89 49.517 137.016 49.517ZM167.637 50.828C167.407 50.828 167.2 50.736 167.016 50.552C165.774 49.264 165.13 47.378 165.084 44.894C165.084 44.71 165.107 44.503 165.153 44.273C165.199 43.997 165.222 43.698 165.222 43.376L165.291 41.927V41.72C165.291 40.892 164.992 40.593 164.394 40.823C163.474 41.467 162.232 42.41 160.668 43.652C159.15 44.848 157.31 46.32 155.148 48.068C154.228 48.942 153.055 49.379 151.629 49.379C150.801 49.379 150.088 48.942 149.49 48.068C148.938 47.148 148.731 46.274 148.869 45.446C149.007 44.25 149.49 42.962 150.318 41.582C151.146 40.156 152.158 38.753 153.354 37.373C154.596 35.947 155.907 34.705 157.287 33.647C158.713 32.543 160.07 31.761 161.358 31.301C161.864 31.117 162.347 30.979 162.807 30.887C163.267 30.795 163.727 30.749 164.187 30.749C166.165 30.749 167.154 31.439 167.154 32.819C167.154 33.279 166.97 33.509 166.602 33.509C166.464 33.509 166.326 33.509 166.188 33.509C166.05 33.463 165.912 33.394 165.774 33.302C164.946 32.612 164.187 32.267 163.497 32.267C162.807 32.267 161.795 32.681 160.461 33.509C159.403 34.153 158.368 34.958 157.356 35.924C156.344 36.89 155.378 37.971 154.458 39.167C153.584 40.317 152.894 41.352 152.388 42.272C151.882 43.146 151.583 43.928 151.491 44.618C151.445 44.802 151.422 45.032 151.422 45.308C151.422 46.044 151.721 46.412 152.319 46.412C153.055 46.412 154.435 45.745 156.459 44.411C161.289 41.191 164.647 38.339 166.533 35.855C166.993 35.257 167.407 34.452 167.775 33.44C168.005 32.796 168.488 32.474 169.224 32.474C170.052 32.474 170.466 32.934 170.466 33.854C170.466 34.59 170.121 35.51 169.431 36.614C168.327 39.972 167.775 42.295 167.775 43.583C167.867 45.561 168.35 47.148 169.224 48.344C169.362 48.482 169.431 48.666 169.431 48.896C169.431 49.31 169.224 49.724 168.81 50.138C168.396 50.598 168.005 50.828 167.637 50.828ZM179.93 50.621C178.182 50.621 176.779 49.793 175.721 48.137C174.847 46.803 174.41 45.354 174.41 43.79C174.41 42.088 174.64 40.501 175.1 39.029C175.606 37.511 176.296 36.108 177.17 34.82C179.102 32.06 181.517 30.68 184.415 30.68C185.427 30.68 186.232 31.071 186.83 31.853C187.474 32.589 187.727 33.371 187.589 34.199C187.359 35.533 186.876 36.2 186.14 36.2C185.818 36.2 185.657 36.039 185.657 35.717C185.657 35.533 185.726 35.349 185.864 35.165H185.795C185.979 34.935 186.071 34.636 186.071 34.268C186.071 33.762 185.841 33.325 185.381 32.957C184.967 32.543 184.507 32.336 184.001 32.336C181.977 32.336 180.229 33.647 178.757 36.269C177.469 38.523 176.825 40.892 176.825 43.376C176.825 44.618 177.147 45.699 177.791 46.619C178.481 47.677 179.424 48.206 180.62 48.206C182.644 48.206 184.553 47.493 186.347 46.067C186.531 45.883 186.761 45.791 187.037 45.791C187.497 45.791 187.727 46.067 187.727 46.619C187.727 46.987 187.589 47.309 187.313 47.585C185.565 49.609 183.104 50.621 179.93 50.621ZM193.814 54.14C192.664 54.14 192.089 53.45 192.089 52.07C192.089 45.216 192.572 37.925 193.538 30.197C193.078 30.105 192.595 30.036 192.089 29.99C191.629 29.898 191.169 29.806 190.709 29.714C189.421 29.53 188.777 29.162 188.777 28.61C188.777 28.058 189.053 27.713 189.605 27.575H189.536C189.122 27.575 189.191 27.552 189.743 27.506C190.295 27.414 191.008 27.322 191.882 27.23C192.756 27.138 193.446 27.092 193.952 27.092C194.228 25.482 194.78 23.573 195.608 21.365C196.068 20.031 196.436 18.881 196.712 17.915C197.034 16.903 197.287 16.098 197.471 15.5C197.701 14.58 198.299 14.12 199.265 14.12C199.679 14.12 199.84 14.327 199.748 14.741C199.38 16.029 198.92 17.708 198.368 19.778C197.816 21.802 197.218 24.217 196.574 27.023C196.988 27.023 197.494 27.023 198.092 27.023C198.736 27.023 199.472 27.046 200.3 27.092C201.128 27.138 201.841 27.184 202.439 27.23C203.083 27.23 203.589 27.23 203.957 27.23C204.371 27.23 204.578 27.391 204.578 27.713C204.578 27.989 204.394 28.288 204.026 28.61C203.704 28.932 203.336 29.093 202.922 29.093C202.37 29.093 201.542 29.185 200.438 29.369C199.334 29.507 197.931 29.737 196.229 30.059C195.539 35.717 195.194 43.399 195.194 53.105C195.194 53.795 194.734 54.14 193.814 54.14ZM206.949 51.035C205.477 51.035 204.235 50.46 203.223 49.31C202.303 48.252 201.843 47.056 201.843 45.722C201.843 43.238 202.97 40.593 205.224 37.787C206.144 36.591 207.133 35.533 208.191 34.613C209.249 33.693 210.353 32.865 211.503 32.129C211.733 31.991 212.055 31.922 212.469 31.922C213.803 31.922 214.47 32.244 214.47 32.888C214.47 33.072 214.332 33.279 214.056 33.509V33.578C214.746 34.544 215.436 35.556 216.126 36.614C216.816 37.672 217.161 38.914 217.161 40.34C217.161 41.536 216.839 42.755 216.195 43.997C215.597 45.239 214.769 46.412 213.711 47.516C212.699 48.574 211.595 49.425 210.399 50.069C209.203 50.713 208.053 51.035 206.949 51.035ZM207.018 48.896C208.168 48.85 209.387 48.39 210.675 47.516C211.963 46.596 213.067 45.492 213.987 44.204C214.953 42.916 215.459 41.697 215.505 40.547C215.597 38.753 214.677 36.729 212.745 34.475C210.767 35.901 209.019 37.58 207.501 39.512C205.707 41.858 204.81 43.974 204.81 45.86C204.81 47.884 205.546 48.896 207.018 48.896ZM222.458 49.517C221.998 49.517 221.699 48.988 221.561 47.93C221.423 46.826 221.354 45.699 221.354 44.549C221.354 43.813 221.354 43.146 221.354 42.548C221.4 41.904 221.423 41.421 221.423 41.099C221.423 40.639 221.446 40.064 221.492 39.374C221.538 38.638 221.607 37.81 221.699 36.89C221.837 35.004 221.906 33.578 221.906 32.612C221.906 32.152 221.883 31.715 221.837 31.301C221.791 30.841 221.768 30.427 221.768 30.059V29.783C221.768 29.231 222.067 28.955 222.665 28.955C223.125 28.955 223.378 29.231 223.424 29.783C223.516 30.289 223.585 31.324 223.631 32.888C223.677 34.452 223.723 36.522 223.769 39.098C223.769 39.788 223.907 40.133 224.183 40.133C224.505 40.133 224.988 39.604 225.632 38.546C226.966 36.338 228.415 34.475 229.979 32.957C231.129 31.899 232.187 31.37 233.153 31.37C234.303 31.37 235.292 31.876 236.12 32.888C236.396 33.21 236.534 33.555 236.534 33.923C236.534 34.521 236.281 34.82 235.775 34.82C235.591 34.82 235.384 34.751 235.154 34.613L235.085 34.682C234.211 34.038 233.636 33.716 233.36 33.716C232.256 33.716 231.221 34.314 230.255 35.51C226.897 39.65 224.827 43.836 224.045 48.068C223.861 49.034 223.332 49.517 222.458 49.517Z" fill="url(#paint0_linear_1165_528)"/>
<g filter="url(#filter0_d_1165_528)">
<path d="M24.5495 11.5966L28.2565 8.73303C34.7465 3.71962 42.7159 1 50.9168 1H62.9521H77.8494C79.5062 1 80.8494 2.34314 80.8494 4V16.8623C80.8494 18.5191 79.5062 19.8623 77.8494 19.8623H62.9521H43.9348C40.2749 19.8623 36.7332 21.1578 33.9372 23.5192L32.166 25.0152C29.8034 27.0105 28.4405 29.9457 28.4405 33.0381C28.4405 36.5857 30.2316 39.8935 33.2025 41.8324L34.7831 42.8639C37.0566 44.3477 39.7127 45.1377 42.4275 45.1377H78.8494C79.9539 45.1377 80.8494 46.0331 80.8494 47.1377V62C80.8494 63.1046 79.9539 64 78.8494 64H48.2439C41.7271 64 35.3443 62.1486 29.839 58.6613L26.6476 56.6398C18.6789 51.5921 13.8494 42.816 13.8494 33.3831C13.8494 24.8557 17.8011 16.8097 24.5495 11.5966Z" fill="url(#paint1_linear_1165_528)"/>
<path d="M24.5495 11.5966L28.2565 8.73303C34.7465 3.71962 42.7159 1 50.9168 1H62.9521H77.8494C79.5062 1 80.8494 2.34314 80.8494 4V16.8623C80.8494 18.5191 79.5062 19.8623 77.8494 19.8623H62.9521H43.9348C40.2749 19.8623 36.7332 21.1578 33.9372 23.5192L32.166 25.0152C29.8034 27.0105 28.4405 29.9457 28.4405 33.0381C28.4405 36.5857 30.2316 39.8935 33.2025 41.8324L34.7831 42.8639C37.0566 44.3477 39.7127 45.1377 42.4275 45.1377H78.8494C79.9539 45.1377 80.8494 46.0331 80.8494 47.1377V62C80.8494 63.1046 79.9539 64 78.8494 64H48.2439C41.7271 64 35.3443 62.1486 29.839 58.6613L26.6476 56.6398C18.6789 51.5921 13.8494 42.816 13.8494 33.3831C13.8494 24.8557 17.8011 16.8097 24.5495 11.5966Z" stroke="url(#paint2_linear_1165_528)"/>
</g>
<path d="M36.5782 1H63.411V19.8623H29.4962C25.7952 19.8623 22.2267 21.2392 19.4849 23.7251L18.1907 24.8985C15.8989 26.9765 14.5917 29.9261 14.5917 33.0198C14.5917 36.5954 16.3355 39.9463 19.2639 41.998L20.2907 42.7174C22.5392 44.2927 25.218 45.1377 27.9634 45.1377H63.411V64H33.8592C27.2692 64 20.8314 62.0185 15.3819 58.3128L13.5596 57.0736C5.70287 51.7309 1 42.8457 1 33.3445C1 24.8042 4.80405 16.7077 11.378 11.256L13.8672 9.19178C20.2513 3.89753 28.2845 1 36.5782 1Z" fill="url(#paint3_linear_1165_528)" stroke="url(#paint4_linear_1165_528)"/>
<g filter="url(#filter1_i_1165_528)">
<path d="M98.7466 21.7L88.2274 13.5191C86.7662 12.3827 84.6346 12.8277 83.7502 14.4538L81.7671 18.1L72.1301 7.75M72.1301 7.75H76.2603L72.1301 11.35V7.75Z" stroke="#F7E37B" stroke-width="3"/>
</g>
<g filter="url(#filter2_i_1165_528)">
<path d="M101.5 45.1L92.013 53.2866C91.0137 54.149 89.4677 53.8238 88.9005 52.6319L86.8151 48.25L73.9658 55M73.9658 55L76.2603 50.95L79.4727 56.8L73.9658 55Z" stroke="#AFADFF" stroke-width="3"/>
</g>
<defs>
<filter id="filter0_d_1165_528" x="9.34937" y="0.5" width="76" height="72" filterUnits="userSpaceOnUse" color-interpolation-filters="sRGB">
<feFlood flood-opacity="0" result="BackgroundImageFix"/>
<feColorMatrix in="SourceAlpha" type="matrix" values="0 0 0 0 0 0 0 0 0 0 0 0 0 0 0 0 0 0 127 0" result="hardAlpha"/>
<feOffset dy="4"/>
<feGaussianBlur stdDeviation="2"/>
<feComposite in2="hardAlpha" operator="out"/>
<feColorMatrix type="matrix" values="0 0 0 0 0 0 0 0 0 0 0 0 0 0 0 0 0 0 0.25 0"/>
<feBlend mode="normal" in2="BackgroundImageFix" result="effect1_dropShadow_1165_528"/>
<feBlend mode="normal" in="SourceGraphic" in2="effect1_dropShadow_1165_528" result="shape"/>
</filter>
<filter id="filter1_i_1165_528" x="70.6301" y="6.25" width="31.0374" height="18.6341" filterUnits="userSpaceOnUse" color-interpolation-filters="sRGB">
<feFlood flood-opacity="0" result="BackgroundImageFix"/>
<feBlend mode="normal" in="SourceGraphic" in2="BackgroundImageFix" result="shape"/>
<feColorMatrix in="SourceAlpha" type="matrix" values="0 0 0 0 0 0 0 0 0 0 0 0 0 0 0 0 0 0 127 0" result="hardAlpha"/>
<feOffset dx="2" dy="2"/>
<feGaussianBlur stdDeviation="1"/>
<feComposite in2="hardAlpha" operator="arithmetic" k2="-1" k3="1"/>
<feColorMatrix type="matrix" values="0 0 0 0 0 0 0 0 0 0 0 0 0 0 0 0 0 0 0.25 0"/>
<feBlend mode="normal" in2="shape" result="effect1_innerShadow_1165_528"/>
</filter>
<filter id="filter2_i_1165_528" x="71.7568" y="43.9644" width="32.7231" height="17.4406" filterUnits="userSpaceOnUse" color-interpolation-filters="sRGB">
<feFlood flood-opacity="0" result="BackgroundImageFix"/>
<feBlend mode="normal" in="SourceGraphic" in2="BackgroundImageFix" result="shape"/>
<feColorMatrix in="SourceAlpha" type="matrix" values="0 0 0 0 0 0 0 0 0 0 0 0 0 0 0 0 0 0 127 0" result="hardAlpha"/>
<feOffset dx="2" dy="2"/>
<feGaussianBlur stdDeviation="1"/>
<feComposite in2="hardAlpha" operator="arithmetic" k2="-1" k3="1"/>
<feColorMatrix type="matrix" values="0 0 0 0 0 0 0 0 0 0 0 0 0 0 0 0 0 0 0.25 0"/>
<feBlend mode="normal" in2="shape" result="effect1_innerShadow_1165_528"/>
</filter>
<linearGradient id="paint0_linear_1165_528" x1="238.821" y1="34.4999" x2="94.9365" y2="33.2563" gradientUnits="userSpaceOnUse">
<stop/>
<stop offset="1" stop-color="#FD2D53" stop-opacity="0.99"/>
</linearGradient>
<linearGradient id="paint1_linear_1165_528" x1="11.1226" y1="35.2" x2="83.9677" y2="35.8744" gradientUnits="userSpaceOnUse">
<stop stop-color="#FD3030"/>
<stop offset="1" stop-color="#4C60A5"/>
</linearGradient>
<linearGradient id="paint2_linear_1165_528" x1="23.1982" y1="38.35" x2="89.4335" y2="36.6637" gradientUnits="userSpaceOnUse">
<stop stop-color="#F95078"/>
<stop offset="1"/>
</linearGradient>
<linearGradient id="paint3_linear_1165_528" x1="-1.53998" y1="35.2" x2="66.3165" y2="35.7852" gradientUnits="userSpaceOnUse">
<stop stop-color="#FD3030"/>
<stop offset="1" stop-color="#F5FFCF"/>
</linearGradient>
<linearGradient id="paint4_linear_1165_528" x1="9.70851" y1="38.35" x2="71.4124" y2="36.8866" gradientUnits="userSpaceOnUse">
<stop stop-color="#F95078"/>
<stop offset="1"/>
</linearGradient>
</defs>
</svg>
